<?xml version="1.0" encoding="utf-8"?>
<!-- Generator: Adobe Illustrator 15.1.0, SVG Export Plug-In . SVG Version: 6.00 Build 0)  -->
<!DOCTYPE svg PUBLIC "-//W3C//DTD SVG 1.1//EN" "http://www.w3.org/Graphics/SVG/1.1/DTD/svg11.dtd">
<svg version="1.1" id="Layer_1" xmlns="http://www.w3.org/2000/svg" xmlns:xlink="http://www.w3.org/1999/xlink" x="0px" y="0px"
	 width="250px" height="72.094px" viewBox="0 0 250 72.094" enable-background="new 0 0 250 72.094" xml:space="preserve">
<g>
	<g id="Logo">
		<polygon points="16.218,4.193 37.237,40.598 42.491,31.497 31.982,13.294 58.256,13.294 55.628,17.845 39.865,17.845 
			45.119,26.946 60.884,26.946 74.021,4.193 		"/>
		<polygon points="37.237,49.699 10.963,4.193 0.455,4.193 37.237,67.902 58.256,31.497 47.746,31.497 		"/>
	</g>
	<g id="Company_name">
		<path d="M147.216,33.136h-4.634l-2.854-20.105l-1.16,9.474v0.041h1.16v4.551h-1.893l-0.946,6.04h-4.567l0.951-6.04h-1.034v-4.551
			h1.771l2.92-18.369h5.611L147.216,33.136z"/>
		<path d="M206.955,33.136h-4.634l-2.855-20.105l-1.157,9.474v0.041h1.157v4.551h-1.893l-0.946,6.04h-4.567l0.953-6.04h-1.035
			v-4.551h1.771l2.921-18.369h5.611L206.955,33.136z"/>
		<path d="M156.422,67.917h-4.634l-2.854-20.106l-1.158,9.475v0.041h1.158v4.55h-1.894l-0.944,6.041h-4.567l0.951-6.041h-1.035
			v-4.55h1.771l2.921-18.368h5.611L156.422,67.917z"/>
		<path d="M107.901,63.367v4.55h-7.199h-4.55v-4.55V38.958h4.55v24.409H107.901z"/>
		<path d="M130.655,38.958v2.896v1.653h-7.281v5.42h5.791v0.829v2.895v0.828h-5.791v9.888h7.281v1.655v2.895h-7.281h-4.551v-3.019
			V40.489v-1.531h4.551H130.655z"/>
		<path d="M176.08,38.958c0.91,0,1.689,0.33,2.338,0.993c0.647,0.66,0.973,1.447,0.973,2.358v22.299
			c0,0.909-0.325,1.688-0.973,2.337c-0.648,0.648-1.428,0.972-2.338,0.972h-7.074h-2.772V38.958h2.896H176.08z M174.84,43.507
			h-4.056v19.859h4.056V43.507z"/>
		<path d="M202.062,38.958v2.896v1.653h-7.281v5.42h5.792v0.829v2.895v0.828h-5.792v9.888h7.281v1.655v2.895h-7.281h-4.551v-3.019
			V40.489v-1.531h4.551H202.062z"/>
		<path d="M226.843,67.917h-4.179l-5.212-19.031h4.054v-5.378h-4.054v4.145v1.202v6.092v8.413v4.558H212.9v-3.019V40.489v-1.531
			h2.938h1.614h4.468h0.827c0.854,0,1.586,0.276,2.192,0.827c0.606,0.552,0.965,1.241,1.075,2.069l0.042,0.412v7.86
			c0,0.856-0.283,1.594-0.848,2.214c-0.564,0.621-1.248,0.986-2.048,1.097L226.843,67.917z"/>
		<path d="M248.521,40.323c0.662,0.799,0.993,1.695,0.993,2.688v3.104v0.827h-0.828h-2.896h-0.827v-0.817v-2.617h-3.516v5.173v0.205
			h3.908c1.164,0,2.147,0.4,2.952,1.197c0.805,0.8,1.207,1.776,1.207,2.932v4.129v6.688c0,0.991-0.331,1.886-0.993,2.684
			c-0.662,0.743-1.49,1.196-2.483,1.362l-0.082,0.04h-0.042h-5.419h-0.041l-0.083-0.04c-0.992-0.166-1.82-0.62-2.482-1.365
			c-0.661-0.801-0.992-1.697-0.992-2.689v-3.104v-0.826h0.819h2.911h0.82v0.826v2.648h3.516v-9.93h-3.931
			c-1.157,0-2.138-0.4-2.937-1.199c-0.8-0.8-1.199-1.779-1.199-2.938v-0.29v-0.373v-5.626c0-0.993,0.331-1.89,0.992-2.688
			c0.662-0.745,1.49-1.199,2.482-1.365h0.083h0.041h5.419h0.042h0.082C247.031,39.124,247.859,39.578,248.521,40.323z"/>
		<path d="M109.276,7.487v7.859v0.042c0,0.883-0.326,1.648-0.973,2.297c-0.648,0.648-1.428,0.972-2.337,0.972h-3.269h-2.027v9.929
			v4.55H96.12v-3.019V5.707v-1.53h2.938h1.613h4.468h0.827c0.855,0,1.586,0.276,2.192,0.828c0.607,0.553,0.965,1.24,1.076,2.069
			L109.276,7.487z M104.726,8.728h-4.055v5.379h4.055V8.728z"/>
		<path d="M127.768,33.136h-4.177l-5.213-19.03h4.054V8.728h-4.054v4.144v1.202v6.091v8.413v4.558h-4.551v-3.019V5.707v-1.53h2.938
			h1.613h4.466h0.829c0.854,0,1.585,0.276,2.192,0.828c0.608,0.553,0.965,1.24,1.076,2.069l0.042,0.414v7.859
			c0,0.855-0.283,1.593-0.849,2.214c-0.565,0.62-1.248,0.986-2.047,1.096L127.768,33.136z"/>
		<path d="M160.41,11.872V8.728h-4.054v19.858h4.054v-9.97h-1.902v-4.552h6.453V29.88c0,0.807-0.263,1.518-0.786,2.13
			c-0.524,0.612-1.186,0.987-1.985,1.126h-7.612c-0.801-0.137-1.462-0.509-1.985-1.116c-0.524-0.606-0.787-1.31-0.787-2.11V7.445
			c0-0.799,0.263-1.511,0.787-2.131c0.523-0.62,1.185-1,1.985-1.138h7.612c0.8,0.138,1.461,0.518,1.985,1.138
			c0.523,0.62,0.786,1.332,0.786,2.131v4.426H160.41z"/>
		<path d="M187.508,4.177v28.959h-4.552V17.581l-2.523,13.404h-3.972l-2.523-13.404v15.555h-4.552V4.177h7.075l1.986,11.543
			l1.985-11.543H187.508z"/>
		<path d="M222.737,8.728h-4.096v18.989v5.419h-4.552v-5.419V8.728h-4.384V4.177h4.384h4.552h4.096V8.728z"/>
		<path d="M227.288,33.136V4.177h4.55v28.959H227.288z"/>
		<path d="M248.76,5.294c0.523,0.606,0.786,1.323,0.786,2.151v3.061v1.325h-4.551v-1.307V8.728h-4.054v19.858h4.054v-1.837v-1.307
			h4.551v1.324v3.103c0,0.829-0.263,1.545-0.786,2.152c-0.524,0.607-1.186,0.979-1.985,1.116h-7.612
			c-0.801-0.137-1.463-0.509-1.986-1.116c-0.523-0.606-0.786-1.323-0.786-2.152V7.445c0-0.828,0.263-1.544,0.786-2.151
			c0.523-0.607,1.186-0.98,1.986-1.118h7.612C247.574,4.314,248.235,4.688,248.76,5.294z"/>
	</g>
	<rect id="Line" x="83.511" width="3.109" height="72.094"/>
</g>
</svg>
