<?xml version="1.0" encoding="utf-8"?>
<!-- Generator: Adobe Illustrator 15.1.0, SVG Export Plug-In . SVG Version: 6.00 Build 0)  -->
<!DOCTYPE svg PUBLIC "-//W3C//DTD SVG 1.1//EN" "http://www.w3.org/Graphics/SVG/1.1/DTD/svg11.dtd">
<svg version="1.1" id="Layer_1" xmlns="http://www.w3.org/2000/svg" xmlns:xlink="http://www.w3.org/1999/xlink" x="0px" y="0px"
	 width="250px" height="72.222px" viewBox="0 0 250 72.222" enable-background="new 0 0 250 72.222" xml:space="preserve">
<g>
	<g id="Logo">
		<polygon fill="#FFFFFF" points="16.025,4.199 37.083,40.669 42.346,31.552 31.818,13.317 58.138,13.317 55.506,17.875 
			39.714,17.875 44.978,26.993 60.771,26.993 73.931,4.199 		"/>
		<polygon fill="#FFFFFF" points="37.083,49.786 10.762,4.199 0.235,4.199 37.083,68.021 58.138,31.552 47.609,31.552 		"/>
	</g>
	<g id="Company_name">
		<path fill="#FFFFFF" d="M147.255,33.195h-4.641l-2.859-20.142l-1.161,9.491v0.042h1.161v4.559h-1.897l-0.946,6.051h-4.576
			l0.953-6.051h-1.036v-4.559h1.773l2.925-18.401h5.622L147.255,33.195z"/>
		<path fill="#FFFFFF" d="M207.1,33.195h-4.643l-2.859-20.142l-1.16,9.491v0.042h1.16v4.559h-1.896l-0.947,6.051h-4.575l0.954-6.051
			h-1.037v-4.559h1.773l2.926-18.401h5.622L207.1,33.195z"/>
		<path fill="#FFFFFF" d="M156.478,68.038h-4.643l-2.859-20.143l-1.16,9.491v0.041h1.16v4.558h-1.896l-0.947,6.053h-4.575
			l0.954-6.053h-1.036v-4.558h1.771l2.927-18.401h5.622L156.478,68.038z"/>
		<path fill="#FFFFFF" d="M107.871,63.479v4.56h-7.211h-4.558v-4.56V39.026h4.558v24.452H107.871z"/>
		<path fill="#FFFFFF" d="M130.665,39.026v2.901v1.657h-7.294v5.43h5.802v0.829v2.9v0.829h-5.802v9.905h7.294v1.658v2.901h-7.294
			h-4.559v-3.026V40.56v-1.533h4.559H130.665z"/>
		<path fill="#FFFFFF" d="M176.17,39.026c0.913,0,1.692,0.332,2.343,0.995c0.648,0.662,0.974,1.45,0.974,2.362v22.338
			c0,0.912-0.325,1.693-0.974,2.342c-0.65,0.649-1.43,0.975-2.343,0.975h-7.087h-2.776V39.026h2.901H176.17z M174.928,43.585h-4.063
			v19.894h4.063V43.585z"/>
		<path fill="#FFFFFF" d="M202.198,39.026v2.901v1.657h-7.295v5.43h5.802v0.829v2.9v0.829h-5.802v9.905h7.295v1.658v2.901h-7.295
			h-4.559v-3.026V40.56v-1.533h4.559H202.198z"/>
		<path fill="#FFFFFF" d="M227.023,68.038h-4.187l-5.221-19.065h4.06v-5.388h-4.06v4.152v1.203v6.103v8.429v4.566h-4.561v-3.026
			V40.56v-1.533h2.942h1.618h4.475h0.829c0.855,0,1.588,0.276,2.196,0.829c0.607,0.553,0.968,1.243,1.077,2.072l0.043,0.414v7.874
			c0,0.856-0.284,1.596-0.85,2.218c-0.567,0.622-1.251,0.987-2.053,1.099L227.023,68.038z"/>
		<path fill="#FFFFFF" d="M248.74,40.395c0.663,0.801,0.994,1.699,0.994,2.694v3.107v0.829h-0.829h-2.901h-0.829v-0.819v-2.621
			h-3.522v5.182v0.206h3.916c1.166,0,2.151,0.4,2.957,1.2s1.209,1.777,1.209,2.935v4.137v6.7c0,0.993-0.331,1.889-0.994,2.688
			c-0.664,0.743-1.493,1.198-2.488,1.363l-0.082,0.042h-0.042h-5.429h-0.041l-0.084-0.042c-0.994-0.165-1.823-0.622-2.486-1.367
			c-0.662-0.802-0.995-1.7-0.995-2.694v-3.109v-0.828h0.822h2.916h0.821v0.828v2.653h3.522v-9.946h-3.938
			c-1.16,0-2.141-0.401-2.942-1.203c-0.801-0.8-1.202-1.78-1.202-2.941v-0.291v-0.373v-5.635c0-0.995,0.333-1.894,0.995-2.694
			c0.663-0.746,1.492-1.203,2.486-1.368h0.084h0.041h5.429h0.042h0.082C247.247,39.191,248.076,39.648,248.74,40.395z"/>
		<path fill="#FFFFFF" d="M109.249,7.499v7.875v0.042c0,0.885-0.326,1.651-0.975,2.3c-0.649,0.649-1.429,0.974-2.341,0.974h-3.274
			h-2.031v9.947v4.559h-4.559V30.17V5.717V4.184h2.943h1.616h4.477h0.829c0.856,0,1.589,0.277,2.196,0.83
			c0.607,0.552,0.967,1.243,1.077,2.072L109.249,7.499z M104.689,8.743h-4.062v5.388h4.062V8.743z"/>
		<path fill="#FFFFFF" d="M127.772,33.195h-4.185l-5.221-19.064h4.061V8.743h-4.061v4.152V14.1v6.102v8.427v4.567h-4.559V30.17
			V5.717V4.184h2.943h1.616h4.474h0.83c0.856,0,1.589,0.277,2.196,0.83c0.608,0.552,0.966,1.243,1.078,2.072l0.041,0.413v7.875
			c0,0.858-0.283,1.597-0.85,2.217c-0.566,0.622-1.25,0.989-2.051,1.099L127.772,33.195z"/>
		<path fill="#FFFFFF" d="M160.474,11.893v-3.15h-4.063v19.893h4.063v-9.988h-1.907v-4.559h6.466v15.843
			c0,0.809-0.264,1.52-0.787,2.133c-0.526,0.615-1.188,0.991-1.989,1.13h-7.626c-0.802-0.138-1.466-0.511-1.989-1.119
			c-0.525-0.608-0.788-1.313-0.788-2.114V7.458c0-0.8,0.263-1.513,0.788-2.134c0.523-0.622,1.188-1.002,1.989-1.14h7.626
			c0.801,0.138,1.463,0.518,1.989,1.14c0.523,0.621,0.787,1.333,0.787,2.134v4.435H160.474z"/>
		<path fill="#FFFFFF" d="M187.618,4.184v29.011h-4.561V17.612l-2.526,13.428h-3.979l-2.528-13.428v15.583h-4.558V4.184h7.086
			l1.989,11.563l1.99-11.563H187.618z"/>
		<path fill="#FFFFFF" d="M222.911,8.743h-4.104v19.023v5.429h-4.559v-5.429V8.743h-4.393V4.184h4.393h4.559h4.104V8.743z"/>
		<path fill="#FFFFFF" d="M227.469,33.195V4.184h4.559v29.011H227.469z"/>
		<path fill="#FFFFFF" d="M248.979,5.304c0.524,0.607,0.787,1.326,0.787,2.154v3.067v1.326h-4.559v-1.308v-1.8h-4.062v19.893h4.062
			v-1.84v-1.31h4.559v1.327v3.108c0,0.83-0.263,1.547-0.787,2.155c-0.526,0.607-1.188,0.98-1.989,1.119h-7.626
			c-0.802-0.138-1.465-0.511-1.989-1.119c-0.524-0.608-0.788-1.326-0.788-2.155V7.458c0-0.829,0.264-1.547,0.788-2.154
			c0.524-0.608,1.188-0.981,1.989-1.12h7.626C247.79,4.322,248.452,4.695,248.979,5.304z"/>
	</g>
	<rect id="Line" x="83.438" fill="#FFFFFF" width="3.115" height="72.222"/>
</g>
</svg>
